<svg xmlns="http://www.w3.org/2000/svg" viewBox="0 0 360 300">

  <g transform="translate(70 50)">
    <rect x="3" y="6" width="220" height="200" rx="8" fill="#2F2F31" opacity="0.1"></rect>
    <rect x="0" y="0" width="220" height="200" rx="8" fill="#FCFCFE" stroke="#2F2F31" stroke-width="2" stroke-linejoin="round"></rect>
    <rect x="0" y="0" width="220" height="36" rx="8" fill="#FAF0E4" stroke="#2F2F31" stroke-width="2"></rect>
    <line x1="0" y1="36" x2="220" y2="36" stroke="#2F2F31" stroke-width="2"></line>
    <circle cx="22" cy="18" r="4" fill="#558B68" stroke="#2F2F31" stroke-width="1.4"></circle>
    <circle cx="40" cy="18" r="4" fill="#FCFCFE" stroke="#2F2F31" stroke-width="1.4"></circle>
    <circle cx="58" cy="18" r="4" fill="#FCFCFE" stroke="#2F2F31" stroke-width="1.4"></circle>
    <g stroke="#2F2F31" stroke-width="1" opacity="0.4">
      <line x1="0" y1="76" x2="220" y2="76"></line>
      <line x1="0" y1="116" x2="220" y2="116"></line>
      <line x1="0" y1="156" x2="220" y2="156"></line>
      <line x1="44" y1="36" x2="44" y2="200"></line>
      <line x1="88" y1="36" x2="88" y2="200"></line>
      <line x1="132" y1="36" x2="132" y2="200"></line>
      <line x1="176" y1="36" x2="176" y2="200"></line>
    </g>
    <g fill="#2F2F31" opacity="0.5">
      <circle cx="22" cy="56" r="1.6"></circle><circle cx="66" cy="56" r="1.6"></circle><circle cx="110" cy="56" r="1.6"></circle><circle cx="154" cy="56" r="1.6"></circle><circle cx="198" cy="56" r="1.6"></circle>
      <circle cx="22" cy="96" r="1.6"></circle><circle cx="66" cy="96" r="1.6"></circle><circle cx="110" cy="96" r="1.6"></circle><circle cx="154" cy="96" r="1.6"></circle><circle cx="198" cy="96" r="1.6"></circle>
      <circle cx="22" cy="136" r="1.6"></circle><circle cx="66" cy="136" r="1.6"></circle><circle cx="110" cy="136" r="1.6"></circle><circle cx="154" cy="136" r="1.6"></circle><circle cx="198" cy="136" r="1.6"></circle>
      <circle cx="22" cy="176" r="1.6"></circle><circle cx="66" cy="176" r="1.6"></circle><circle cx="110" cy="176" r="1.6"></circle><circle cx="154" cy="176" r="1.6"></circle><circle cx="198" cy="176" r="1.6"></circle>
    </g>
    <ellipse cx="22" cy="56" rx="14" ry="11" fill="none" stroke="#558B68" stroke-width="2.2" transform="rotate(-8 22 56)"></ellipse>
    <ellipse cx="110" cy="96" rx="14" ry="11" fill="none" stroke="#558B68" stroke-width="2.2" transform="rotate(6 110 96)"></ellipse>
    <ellipse cx="154" cy="136" rx="14" ry="11" fill="none" stroke="#558B68" stroke-width="2.2" transform="rotate(-4 154 136)"></ellipse>
    <ellipse cx="198" cy="176" rx="14" ry="11" fill="none" stroke="#558B68" stroke-width="2.2" transform="rotate(8 198 176)"></ellipse>
    <path d="M40 60 Q70 50 100 92" fill="none" stroke="#2F2F31" stroke-width="1.4" stroke-dasharray="2 3" opacity="0.6"></path>
    <path d="M124 100 Q140 110 144 132" fill="none" stroke="#2F2F31" stroke-width="1.4" stroke-dasharray="2 3" opacity="0.6"></path>
    <path d="M168 140 Q188 150 196 168" fill="none" stroke="#2F2F31" stroke-width="1.4" stroke-dasharray="2 3" opacity="0.6"></path>
  </g>

</svg>