<svg xmlns="http://www.w3.org/2000/svg" viewBox="0 0 360 300">

  <g transform="translate(90 90) rotate(-3)">
    <rect x="3" y="6" width="160" height="120" rx="6" fill="#2F2F31" opacity="0.12"></rect>
    <rect x="0" y="0" width="160" height="120" rx="6" fill="#FAF0E4" stroke="#2F2F31" stroke-width="2" stroke-linejoin="round"></rect>
    <rect x="68" y="0" width="24" height="120" fill="#558B68" stroke="#2F2F31" stroke-width="2"></rect>
    <line x1="0" y1="60" x2="160" y2="60" stroke="#2F2F31" stroke-width="2"></line>
    <rect x="68" y="56" width="24" height="8" fill="#558B68" stroke="#2F2F31" stroke-width="2"></rect>
    <g transform="translate(80 0)">
      <path d="M-4 0 Q-26 -22 -16 -32 Q-2 -38 0 -8" fill="#558B68" stroke="#2F2F31" stroke-width="2" stroke-linejoin="round"></path>
      <path d="M4 0 Q26 -22 16 -32 Q2 -38 0 -8" fill="#558B68" stroke="#2F2F31" stroke-width="2" stroke-linejoin="round"></path>
      <ellipse cx="0" cy="-2" rx="6" ry="4" fill="#FAF0E4" stroke="#2F2F31" stroke-width="1.4"></ellipse>
    </g>
  </g>
  <g transform="translate(270 80)">
    <circle cx="0" cy="0" r="22" fill="#FCFCFE" stroke="#2F2F31" stroke-width="2"></circle>
    <circle cx="0" cy="0" r="22" fill="none" stroke="#2F2F31" stroke-width="1" opacity="0.3" transform="translate(2 3)"></circle>
    <line x1="0" y1="-22" x2="0" y2="-18" stroke="#2F2F31" stroke-width="1.6"></line>
    <line x1="0" y1="22" x2="0" y2="18" stroke="#2F2F31" stroke-width="1.6"></line>
    <line x1="-22" y1="0" x2="-18" y2="0" stroke="#2F2F31" stroke-width="1.6"></line>
    <line x1="22" y1="0" x2="18" y2="0" stroke="#2F2F31" stroke-width="1.6"></line>
    <line x1="0" y1="0" x2="0" y2="-12" stroke="#2F2F31" stroke-width="2" stroke-linecap="round"></line>
    <line x1="0" y1="0" x2="9" y2="3" stroke="#2F2F31" stroke-width="2" stroke-linecap="round"></line>
    <circle cx="0" cy="0" r="2" fill="#558B68" stroke="#2F2F31" stroke-width="1"></circle>
  </g>
  <g stroke="#2F2F31" stroke-width="1.4" stroke-linecap="round" fill="none" opacity="0.7">
    <path d="M260 50 Q256 42 262 38"></path>
    <path d="M280 46 Q284 38 290 40"></path>
  </g>

</svg>