<svg xmlns="http://www.w3.org/2000/svg" viewBox="0 0 360 300">

  <g transform="translate(50 60) rotate(-2)">
    <rect x="3" y="6" width="260" height="180" rx="8" fill="#2F2F31" opacity="0.1"></rect>
    <rect x="0" y="0" width="260" height="180" rx="8" fill="#FCFCFE" stroke="#2F2F31" stroke-width="2" stroke-linejoin="round"></rect>
    <g stroke="#2F2F31" stroke-width="1" opacity="0.25">
      <line x1="20" y1="40" x2="240" y2="40"></line>
      <line x1="20" y1="80" x2="240" y2="80"></line>
      <line x1="20" y1="120" x2="240" y2="120"></line>
      <line x1="20" y1="160" x2="240" y2="160"></line>
    </g>
    <line x1="20" y1="160" x2="240" y2="160" stroke="#2F2F31" stroke-width="1.6"></line>
    <line x1="20" y1="20" x2="20" y2="160" stroke="#2F2F31" stroke-width="1.6"></line>
    <path d="M30 50 L60 58 L90 70 L120 82 L150 100 L180 118 L210 138 L232 150" fill="none" stroke="#558B68" stroke-width="2.4" stroke-linecap="round" stroke-linejoin="round"></path>
    <g fill="#FCFCFE" stroke="#2F2F31" stroke-width="1.4">
      <circle cx="30" cy="50" r="3"></circle>
      <circle cx="90" cy="70" r="3"></circle>
      <circle cx="150" cy="100" r="3"></circle>
      <circle cx="210" cy="138" r="3"></circle>
      <circle cx="232" cy="150" r="3"></circle>
    </g>
    <path d="M232 150 l-6 -3 m6 3 l-2 -7" stroke="#2F2F31" stroke-width="1.6" fill="none" stroke-linecap="round"></path>
  </g>
  <g stroke="#2F2F31" stroke-width="1.4" stroke-linecap="round" fill="none" opacity="0.6">
    <path d="M310 200 L316 192"></path>
    <path d="M310 212 L320 210"></path>
    <path d="M306 224 L314 224"></path>
  </g>

</svg>