<svg xmlns="http://www.w3.org/2000/svg" viewBox="0 0 360 300">

  <g transform="translate(60 150)">
    <ellipse cx="60" cy="20" rx="56" ry="10" fill="#FCFCFE" stroke="#2F2F31" stroke-width="2"></ellipse>
    <path d="M4 20 Q10 70 60 70 Q110 70 116 20" fill="#FAF0E4" stroke="#2F2F31" stroke-width="2" stroke-linejoin="round"></path>
    <ellipse cx="60" cy="20" rx="42" ry="6" fill="#558B68" opacity="0.4"></ellipse>
    <path d="M22 16 Q36 12 56 14" stroke="#FCFCFE" stroke-width="1.4" fill="none" stroke-linecap="round" opacity="0.7"></path>
  </g>
  <g transform="translate(200 60) rotate(28)">
    <ellipse cx="0" cy="0" rx="42" ry="26" fill="#FCFCFE" stroke="#2F2F31" stroke-width="2"></ellipse>
    <ellipse cx="-4" cy="-4" rx="28" ry="14" fill="none" stroke="#2F2F31" stroke-width="1.4" opacity="0.5"></ellipse>
    <rect x="36" y="-6" width="120" height="12" rx="6" fill="#FAF0E4" stroke="#2F2F31" stroke-width="2"></rect>
  </g>
  <g stroke="#2F2F31" stroke-width="1.4" fill="none" opacity="0.6" stroke-linecap="round">
    <path d="M60 90 Q56 80 64 76"></path>
    <path d="M80 80 Q78 70 86 70"></path>
    <path d="M100 88 Q104 80 110 84"></path>
  </g>

</svg>