<svg xmlns="http://www.w3.org/2000/svg" viewBox="0 0 360 300">

  <g transform="translate(50 90)">
    <rect x="0" y="80" width="260" height="14" rx="3" fill="#FAF0E4" stroke="#2F2F31" stroke-width="2"></rect>
    <line x1="20" y1="94" x2="20" y2="160" stroke="#2F2F31" stroke-width="2" stroke-linecap="round"></line>
    <line x1="240" y1="94" x2="240" y2="160" stroke="#2F2F31" stroke-width="2" stroke-linecap="round"></line>
    <rect x="50" y="50" width="60" height="44" rx="3" fill="#FCFCFE" stroke="#2F2F31" stroke-width="1.6"></rect>
    <line x1="56" y1="60" x2="100" y2="60" stroke="#2F2F31" stroke-width="1.2" opacity="0.5"></line>
    <line x1="56" y1="68" x2="92" y2="68" stroke="#2F2F31" stroke-width="1.2" opacity="0.5"></line>
    <line x1="56" y1="76" x2="98" y2="76" stroke="#2F2F31" stroke-width="1.2" opacity="0.5"></line>
    <circle cx="160" cy="78" r="14" fill="#FAF0E4" stroke="#2F2F31" stroke-width="1.6"></circle>
    <ellipse cx="160" cy="78" rx="6" ry="3" fill="#2F2F31" opacity="0.3"></ellipse>
  </g>
  <g transform="translate(180 70)">
    <rect x="0" y="0" width="80" height="60" rx="4" fill="#FCFCFE" stroke="#2F2F31" stroke-width="2"></rect>
    <rect x="0" y="0" width="80" height="60" rx="4" fill="none" stroke="#2F2F31" stroke-width="1" transform="translate(2 3)" opacity="0.3"></rect>
    <rect x="30" y="60" width="20" height="50" fill="#FCFCFE" stroke="#2F2F31" stroke-width="2"></rect>
    <rect x="0" y="60" width="80" height="6" fill="#FAF0E4" stroke="#2F2F31" stroke-width="2"></rect>
    <line x1="-20" y1="40" x2="0" y2="40" stroke="#2F2F31" stroke-width="2" stroke-linecap="round"></line>
    <line x1="-20" y1="40" x2="-20" y2="110" stroke="#2F2F31" stroke-width="2" stroke-linecap="round"></line>
  </g>
  <g stroke="#2F2F31" stroke-width="1.4" stroke-dasharray="3 4" fill="none" opacity="0.5">
    <ellipse cx="220" cy="180" rx="30" ry="6"></ellipse>
  </g>

</svg>