<svg xmlns="http://www.w3.org/2000/svg" viewBox="0 0 360 300">

  <g stroke="#2F2F31" stroke-width="1.6" stroke-dasharray="2 5" fill="none" stroke-linecap="round" opacity="0.5">
    <path d="M40 240 Q90 220 130 200 Q180 170 220 130 Q260 90 290 70"></path>
  </g>
  <g transform="translate(40 230) rotate(-25)">
    <path d="M0 0 L60 -8 L48 -2 L60 -8 L42 8 Z" fill="#FAF0E4" stroke="#2F2F31" stroke-width="1.6" stroke-linejoin="round"></path>
    <path d="M0 0 L48 -2" fill="none" stroke="#2F2F31" stroke-width="1.2" opacity="0.5"></path>
  </g>
  <g transform="translate(290 70) rotate(-30)">
    <path d="M0 0 L36 -4 L28 -1 L36 -4 L24 5 Z" fill="#FCFCFE" stroke="#2F2F31" stroke-width="1.6" stroke-linejoin="round"></path>
    <path d="M0 0 L28 -1" fill="none" stroke="#2F2F31" stroke-width="1.2" opacity="0.5"></path>
  </g>
  <g fill="#558B68" stroke="#2F2F31" stroke-width="1" opacity="0.9">
    <circle cx="120" cy="206" r="2"></circle>
    <circle cx="170" cy="180" r="2"></circle>
    <circle cx="220" cy="138" r="2"></circle>
  </g>
  <g stroke="#2F2F31" stroke-width="1.4" fill="none" stroke-linecap="round" opacity="0.6">
    <path d="M70 220 Q78 212 78 204"></path>
    <path d="M90 230 Q94 222 90 216"></path>
  </g>

</svg>