<svg xmlns="http://www.w3.org/2000/svg" viewBox="0 0 360 300">

  <g transform="translate(110 50)">
    <rect x="0" y="0" width="140" height="200" rx="2" fill="#FCFCFE" stroke="#2F2F31" stroke-width="2"></rect>
    <rect x="-3" y="200" width="146" height="10" fill="#FAF0E4" stroke="#2F2F31" stroke-width="2"></rect>
    <g transform="translate(20 8)">
      <path d="M0 0 L100 -4 L100 200 L20 196 Z" fill="#FAF0E4" stroke="#2F2F31" stroke-width="2" stroke-linejoin="round"></path>
      <path d="M0 0 L100 -4" fill="none" stroke="#2F2F31" stroke-width="1.4"></path>
      <circle cx="14" cy="100" r="3" fill="#558B68" stroke="#2F2F31" stroke-width="1.2"></circle>
    </g>
  </g>
  <g fill="#558B68" opacity="0.18">
    <path d="M130 58 L250 250 L100 250 Z"></path>
  </g>
  <g stroke="#558B68" stroke-width="1.4" fill="none" opacity="0.9" stroke-linecap="round">
    <line x1="140" y1="80" x2="166" y2="120"></line>
    <line x1="148" y1="74" x2="190" y2="140"></line>
    <line x1="158" y1="68" x2="216" y2="160"></line>
  </g>
  <g stroke="#2F2F31" stroke-width="1.4" fill="none" opacity="0.7" stroke-linecap="round">
    <path d="M70 60 Q66 52 72 46"></path>
    <path d="M280 70 Q288 64 286 56"></path>
    <path d="M50 200 Q56 196 56 188"></path>
  </g>

</svg>