<svg xmlns="http://www.w3.org/2000/svg" viewBox="0 0 360 300">

  <g transform="translate(110 30) rotate(-3)">
    <path d="M0 0 L140 0 L140 220 L130 232 L120 220 L110 232 L100 220 L90 232 L80 220 L70 232 L60 220 L50 232 L40 220 L30 232 L20 220 L10 232 L0 220 Z" fill="#FCFCFE" stroke="#2F2F31" stroke-width="2" stroke-linejoin="round"></path>
    <line x1="20" y1="20" x2="120" y2="20" stroke="#2F2F31" stroke-width="2"></line>
    <g stroke="#2F2F31" stroke-width="1.4" stroke-linecap="round">
      <line x1="14" y1="40" x2="80" y2="40"></line>
      <line x1="100" y1="40" x2="124" y2="40"></line>
      <line x1="14" y1="58" x2="76" y2="58"></line>
      <line x1="100" y1="58" x2="124" y2="58"></line>
      <line x1="14" y1="76" x2="84" y2="76"></line>
      <line x1="100" y1="76" x2="124" y2="76"></line>
    </g>
    <g opacity="0.3" stroke="#2F2F31" stroke-width="1.4" stroke-dasharray="3 3" stroke-linecap="round">
      <line x1="14" y1="94" x2="80" y2="94"></line>
      <line x1="100" y1="94" x2="124" y2="94"></line>
    </g>
    <ellipse cx="70" cy="94" rx="60" ry="10" fill="none" stroke="#558B68" stroke-width="2" transform="rotate(-2 70 94)"></ellipse>
    <line x1="14" y1="120" x2="124" y2="120" stroke="#2F2F31" stroke-width="1" stroke-dasharray="2 3"></line>
    <g stroke="#2F2F31" stroke-width="1.4" stroke-linecap="round">
      <line x1="14" y1="140" x2="124" y2="140"></line>
    </g>
    <g stroke="#2F2F31" stroke-width="1.4" stroke-linecap="round">
      <line x1="14" y1="160" x2="60" y2="160"></line>
      <line x1="100" y1="160" x2="124" y2="160"></line>
    </g>
  </g>
  <g stroke="#2F2F31" stroke-width="1.4" fill="none" opacity="0.6" stroke-linecap="round">
    <path d="M70 100 L84 110"></path>
    <path d="M68 116 L84 116"></path>
  </g>

</svg>