<svg xmlns="http://www.w3.org/2000/svg" viewBox="0 0 360 300">

  <g transform="translate(80 100) rotate(-8)">
    <path d="M0 30 L0 70 L40 70 L40 30 Z" fill="#FAF0E4" stroke="#2F2F31" stroke-width="2" stroke-linejoin="round"></path>
    <path d="M40 10 L160 -20 L160 120 L40 90 Z" fill="#558B68" stroke="#2F2F31" stroke-width="2" stroke-linejoin="round"></path>
    <path d="M40 30 L40 70" stroke="#2F2F31" stroke-width="2"></path>
    <ellipse cx="160" cy="50" rx="6" ry="70" fill="#FAF0E4" stroke="#2F2F31" stroke-width="2"></ellipse>
    <line x1="20" y1="50" x2="20" y2="86" stroke="#2F2F31" stroke-width="2" stroke-linecap="round"></line>
    <rect x="14" y="84" width="12" height="14" rx="2" fill="#FCFCFE" stroke="#2F2F31" stroke-width="1.6"></rect>
  </g>
  <g transform="translate(240 80)" font-family="Georgia, serif" fill="#2F2F31" opacity="0.7">
    <path d="M0 0 Q4 -4 8 0 Q12 4 16 0" fill="none" stroke="#2F2F31" stroke-width="1.4" stroke-linecap="round"></path>
    <path d="M-6 14 Q-2 10 2 14 Q6 18 10 14" fill="none" stroke="#2F2F31" stroke-width="1.4" stroke-linecap="round"></path>
    <path d="M-12 28 Q-8 24 -4 28" fill="none" stroke="#2F2F31" stroke-width="1.4" stroke-linecap="round"></path>
  </g>
  <g transform="translate(264 50)">
    <line x1="0" y1="0" x2="0" y2="20" stroke="#558B68" stroke-width="4" stroke-linecap="round"></line>
    <line x1="14" y1="0" x2="14" y2="20" stroke="#558B68" stroke-width="4" stroke-linecap="round"></line>
    <circle cx="7" cy="-12" r="14" fill="none" stroke="#2F2F31" stroke-width="1.6" stroke-dasharray="3 3" opacity="0.5"></circle>
  </g>

</svg>