<svg xmlns="http://www.w3.org/2000/svg" viewBox="0 0 360 300">

  <g transform="translate(80 60)">
    <g transform="translate(40 0) rotate(-12)">
      <path d="M0 0 L100 0 L140 40 L100 80 L0 80 Z" fill="#FAF0E4" stroke="#2F2F31" stroke-width="2" stroke-linejoin="round"></path>
      <circle cx="20" cy="40" r="8" fill="#FCFCFE" stroke="#2F2F31" stroke-width="2"></circle>
      <circle cx="20" cy="40" r="2" fill="#2F2F31"></circle>
    </g>
    <g transform="translate(50 50) rotate(4)">
      <path d="M0 0 L100 0 L140 40 L100 80 L0 80 Z" fill="#FCFCFE" stroke="#2F2F31" stroke-width="2" stroke-linejoin="round"></path>
      <circle cx="20" cy="40" r="8" fill="#FCFCFE" stroke="#2F2F31" stroke-width="2"></circle>
      <circle cx="20" cy="40" r="2" fill="#2F2F31"></circle>
      <line x1="60" y1="32" x2="110" y2="32" stroke="#2F2F31" stroke-width="1.6" stroke-linecap="round"></line>
      <line x1="60" y1="46" x2="100" y2="46" stroke="#2F2F31" stroke-width="1.6" stroke-linecap="round"></line>
    </g>
    <g transform="translate(30 110) rotate(-6)">
      <path d="M0 0 L100 0 L140 40 L100 80 L0 80 Z" fill="#558B68" stroke="#2F2F31" stroke-width="2" stroke-linejoin="round"></path>
      <circle cx="20" cy="40" r="8" fill="#FCFCFE" stroke="#2F2F31" stroke-width="2"></circle>
      <circle cx="20" cy="40" r="2" fill="#2F2F31"></circle>
      <line x1="60" y1="32" x2="110" y2="32" stroke="#FCFCFE" stroke-width="1.8" stroke-linecap="round"></line>
      <line x1="60" y1="46" x2="96" y2="46" stroke="#FCFCFE" stroke-width="1.8" stroke-linecap="round"></line>
    </g>
  </g>
  <g stroke="#2F2F31" stroke-width="1.4" fill="none" stroke-linecap="round" opacity="0.55">
    <path d="M52 50 Q46 42 52 36"></path>
    <path d="M310 100 Q316 94 314 86"></path>
    <path d="M40 220 Q46 216 46 208"></path>
  </g>

</svg>