<svg xmlns="http://www.w3.org/2000/svg" viewBox="0 0 360 300">

  <path d="M30 150 Q90 100 150 130 Q210 160 250 130 Q300 90 330 110" fill="none" stroke="#558B68" stroke-width="22" stroke-linecap="round" opacity="0.95"></path>
  <path d="M30 150 Q90 100 150 130 Q210 160 250 130 Q300 90 330 110" fill="none" stroke="#2F2F31" stroke-width="2" stroke-linecap="round"></path>
  <g fill="none" stroke="#2F2F31" stroke-width="1.4" stroke-linecap="round" opacity="0.5">
    <path d="M40 144 L42 162"></path>
    <path d="M64 130 L66 152"></path>
    <path d="M90 122 L92 142"></path>
    <path d="M120 122 L122 138"></path>
    <path d="M150 130 L152 142"></path>
    <path d="M180 144 L180 152"></path>
    <path d="M210 152 L210 156"></path>
    <path d="M236 144 L236 148"></path>
    <path d="M260 128 L260 130"></path>
  </g>
  <g transform="translate(36 154)">
    <circle cx="0" cy="0" r="6" fill="#FAF0E4" stroke="#2F2F31" stroke-width="1.6"></circle>
  </g>
  <g transform="translate(330 110)">
    <circle cx="0" cy="0" r="3" fill="#FCFCFE" stroke="#2F2F31" stroke-width="1.4"></circle>
  </g>
  <g stroke="#2F2F31" stroke-width="1.4" fill="none" stroke-linecap="round" opacity="0.55">
    <path d="M70 70 Q66 60 74 56"></path>
    <path d="M180 60 Q186 54 192 60"></path>
    <path d="M290 60 Q296 54 304 60"></path>
  </g>

</svg>