<svg xmlns="http://www.w3.org/2000/svg" viewBox="0 0 360 300">

  <g transform="translate(40 80)">
    <line x1="0" y1="120" x2="280" y2="120" stroke="#2F2F31" stroke-width="2"></line>
    <path d="M20 120 Q40 80 60 80 L220 80 Q240 80 260 120" fill="#FAF0E4" stroke="#2F2F31" stroke-width="2" stroke-linejoin="round"></path>
    <line x1="60" y1="80" x2="220" y2="80" stroke="#2F2F31" stroke-width="2"></line>
    <g stroke="#2F2F31" stroke-width="1.2" fill="none" stroke-linecap="round" opacity="0.4">
      <line x1="40" y1="100" x2="80" y2="100"></line>
      <line x1="100" y1="100" x2="160" y2="100"></line>
      <line x1="180" y1="100" x2="240" y2="100"></line>
    </g>
    <circle cx="60" cy="40" r="14" fill="#FCFCFE" stroke="#2F2F31" stroke-width="2"></circle>
    <g stroke="#2F2F31" stroke-width="1.4" stroke-linecap="round">
      <line x1="60" y1="20" x2="60" y2="14"></line>
      <line x1="60" y1="60" x2="60" y2="66"></line>
      <line x1="40" y1="40" x2="34" y2="40"></line>
      <line x1="80" y1="40" x2="86" y2="40"></line>
    </g>
    <g stroke="#558B68" stroke-width="2" fill="none" stroke-linecap="round" stroke-linejoin="round" opacity="0.9">
      <path d="M0 140 L20 138 L40 142 L60 140 L80 142 L100 140 L120 142 L140 140 L160 142 L180 140 L200 142 L220 140 L240 142 L260 140 L280 142"></path>
    </g>
    <g fill="#558B68" stroke="#2F2F31" stroke-width="1.2">
      <circle cx="120" cy="142" r="2.4"></circle>
      <circle cx="220" cy="140" r="2.4"></circle>
    </g>
  </g>
  <g stroke="#2F2F31" stroke-width="1.4" fill="none" stroke-linecap="round" opacity="0.55">
    <path d="M50 60 Q44 52 50 46"></path>
    <path d="M310 80 Q316 74 314 66"></path>
  </g>

</svg>