<svg xmlns="http://www.w3.org/2000/svg" viewBox="0 0 360 300">

  <g transform="translate(180 150)">
    <circle cx="0" cy="0" r="74" fill="#FCFCFE" stroke="#2F2F31" stroke-width="2.4"></circle>
    <path d="M-74 0 A74 74 0 0 1 -52 -52 L-32 -32 A44 44 0 0 0 -44 0 Z" fill="#558B68" stroke="#2F2F31" stroke-width="2" stroke-linejoin="round"></path>
    <path d="M52 52 A74 74 0 0 1 -52 52 L-32 32 A44 44 0 0 0 32 32 Z" fill="#558B68" stroke="#2F2F31" stroke-width="2" stroke-linejoin="round"></path>
    <circle cx="0" cy="0" r="44" fill="#FAF0E4" stroke="#2F2F31" stroke-width="2"></circle>
    <g stroke="#2F2F31" stroke-width="1.4" fill="none" stroke-linecap="round" opacity="0.4">
      <line x1="-44" y1="0" x2="-50" y2="0"></line>
      <line x1="44" y1="0" x2="50" y2="0"></line>
      <line x1="0" y1="-44" x2="0" y2="-50"></line>
      <line x1="0" y1="44" x2="0" y2="50"></line>
    </g>
    <g stroke="#2F2F31" stroke-width="1.6" fill="none" stroke-linecap="round" stroke-linejoin="round">
      <path d="M-90 -10 Q-90 -30 -70 -30"></path>
      <circle cx="-94" cy="-8" r="4" fill="#FCFCFE"></circle>
    </g>
  </g>
  <g stroke="#2F2F31" stroke-width="2" fill="none" stroke-linecap="round" opacity="0.7">
    <path d="M30 240 Q50 232 70 240 Q90 248 110 240"></path>
    <path d="M250 250 Q270 242 290 250 Q310 258 330 250"></path>
  </g>

</svg>