<svg xmlns="http://www.w3.org/2000/svg" viewBox="0 0 360 300">

  <g transform="translate(60 150)">
    <line x1="0" y1="60" x2="240" y2="60" stroke="#2F2F31" stroke-width="2.4" stroke-linecap="round"></line>
    <line x1="0" y1="80" x2="240" y2="80" stroke="#2F2F31" stroke-width="2.4" stroke-linecap="round"></line>
    <g stroke="#2F2F31" stroke-width="2" stroke-linecap="round">
      <line x1="20" y1="60" x2="20" y2="80"></line>
      <line x1="60" y1="60" x2="60" y2="80"></line>
      <line x1="100" y1="60" x2="100" y2="80"></line>
      <line x1="140" y1="60" x2="140" y2="80"></line>
      <line x1="180" y1="60" x2="180" y2="80"></line>
      <line x1="220" y1="60" x2="220" y2="80"></line>
    </g>
  </g>
  <g transform="translate(140 100)">
    <rect x="0" y="0" width="100" height="50" rx="6" fill="#FAF0E4" stroke="#2F2F31" stroke-width="2" stroke-linejoin="round"></rect>
    <rect x="-10" y="36" width="120" height="10" rx="2" fill="#FCFCFE" stroke="#2F2F31" stroke-width="2"></rect>
    <circle cx="20" cy="50" r="8" fill="#FCFCFE" stroke="#2F2F31" stroke-width="2"></circle>
    <circle cx="80" cy="50" r="8" fill="#FCFCFE" stroke="#2F2F31" stroke-width="2"></circle>
    <circle cx="20" cy="50" r="3" fill="#2F2F31"></circle>
    <circle cx="80" cy="50" r="3" fill="#2F2F31"></circle>
    <rect x="10" y="10" width="80" height="20" rx="3" fill="#558B68" stroke="#2F2F31" stroke-width="1.6"></rect>
    <line x1="34" y1="10" x2="34" y2="30" stroke="#2F2F31" stroke-width="1.4"></line>
    <line x1="58" y1="10" x2="58" y2="30" stroke="#2F2F31" stroke-width="1.4"></line>
    <rect x="40" y="-10" width="20" height="14" rx="2" fill="#FCFCFE" stroke="#2F2F31" stroke-width="2"></rect>
  </g>
  <g stroke="#2F2F31" stroke-width="1.6" fill="none" stroke-linecap="round" opacity="0.6">
    <path d="M260 110 Q270 108 274 100"></path>
    <path d="M270 122 Q280 122 286 116"></path>
    <path d="M276 138 Q286 138 290 134"></path>
  </g>
  <g fill="#FCFCFE" stroke="#2F2F31" stroke-width="1.2" opacity="0.6">
    <circle cx="40" cy="80" r="2"></circle>
    <circle cx="100" cy="86" r="2"></circle>
  </g>

</svg>