<svg xmlns="http://www.w3.org/2000/svg" viewBox="0 0 360 300">

  <g transform="translate(60 130)">
    <ellipse cx="40" cy="40" rx="34" ry="22" fill="#FAF0E4" stroke="#2F2F31" stroke-width="2"></ellipse>
    <ellipse cx="80" cy="20" rx="32" ry="20" fill="#FCFCFE" stroke="#2F2F31" stroke-width="2"></ellipse>
    <ellipse cx="100" cy="60" rx="34" ry="22" fill="#FAF0E4" stroke="#2F2F31" stroke-width="2"></ellipse>
    <ellipse cx="56" cy="80" rx="30" ry="18" fill="#FCFCFE" stroke="#2F2F31" stroke-width="2"></ellipse>
    <ellipse cx="130" cy="36" rx="30" ry="20" fill="#FAF0E4" stroke="#2F2F31" stroke-width="2"></ellipse>
    <ellipse cx="160" cy="70" rx="32" ry="20" fill="#FCFCFE" stroke="#2F2F31" stroke-width="2"></ellipse>
    <ellipse cx="120" cy="92" rx="28" ry="16" fill="#FAF0E4" stroke="#2F2F31" stroke-width="2"></ellipse>
    <g stroke="#2F2F31" stroke-width="1" fill="none" opacity="0.4" stroke-linecap="round">
      <path d="M30 38 Q40 32 50 36"></path>
      <path d="M70 18 Q80 14 88 18"></path>
      <path d="M148 68 Q158 64 166 68"></path>
      <path d="M48 78 Q56 74 64 78"></path>
    </g>
  </g>
  <g transform="translate(280 80)">
    <ellipse cx="0" cy="0" rx="26" ry="18" fill="#558B68" stroke="#2F2F31" stroke-width="2"></ellipse>
    <path d="M-12 -2 Q-4 -8 6 -4" fill="none" stroke="#FCFCFE" stroke-width="1.4" stroke-linecap="round" opacity="0.7"></path>
  </g>
  <g stroke="#2F2F31" stroke-width="1.4" fill="none" stroke-linecap="round" opacity="0.55">
    <path d="M250 140 Q260 138 264 130"></path>
    <path d="M40 80 Q34 72 42 68"></path>
  </g>

</svg>