<svg xmlns="http://www.w3.org/2000/svg" viewBox="0 0 360 300">

  <g transform="translate(60 70)">
    <rect x="0" y="0" width="240" height="40" rx="4" fill="#558B68" stroke="#2F2F31" stroke-width="2" stroke-linejoin="round"></rect>
    <line x1="60" y1="0" x2="60" y2="40" stroke="#FCFCFE" stroke-width="1.4" opacity="0.6"></line>
    <line x1="120" y1="0" x2="120" y2="40" stroke="#FCFCFE" stroke-width="1.4" opacity="0.6"></line>
    <line x1="180" y1="0" x2="180" y2="40" stroke="#FCFCFE" stroke-width="1.4" opacity="0.6"></line>
    <g transform="translate(20 50) rotate(-2)">
      <rect x="0" y="0" width="200" height="36" rx="4" fill="#FAF0E4" stroke="#2F2F31" stroke-width="2"></rect>
      <line x1="50" y1="0" x2="50" y2="36" stroke="#2F2F31" stroke-width="1.4" opacity="0.4"></line>
      <line x1="100" y1="0" x2="100" y2="36" stroke="#2F2F31" stroke-width="1.4" opacity="0.4"></line>
      <line x1="150" y1="0" x2="150" y2="36" stroke="#2F2F31" stroke-width="1.4" opacity="0.4"></line>
    </g>
    <g transform="translate(50 96) rotate(3)">
      <rect x="0" y="0" width="140" height="34" rx="4" fill="#FCFCFE" stroke="#2F2F31" stroke-width="2"></rect>
      <line x1="70" y1="0" x2="70" y2="34" stroke="#2F2F31" stroke-width="1.4" opacity="0.4"></line>
    </g>
    <g transform="translate(90 138) rotate(-4)">
      <rect x="0" y="0" width="60" height="32" rx="4" fill="#FCFCFE" stroke="#2F2F31" stroke-width="2"></rect>
    </g>
  </g>
  <g stroke="#2F2F31" stroke-width="1.6" fill="none" stroke-linecap="round" opacity="0.7">
    <path d="M70 232 Q90 240 110 232"></path>
    <path d="M130 240 Q150 248 170 240"></path>
    <path d="M190 232 Q210 240 230 232"></path>
    <path d="M250 244 Q270 252 290 244"></path>
  </g>

</svg>