<svg xmlns="http://www.w3.org/2000/svg" viewBox="0 0 360 300">

  <g transform="translate(40 200)">
    <path d="M0 0 L160 0 L160 80 L0 80 Z" fill="#FAF0E4" stroke="#2F2F31" stroke-width="2"></path>
    <path d="M160 0 L162 8 L168 14 L162 22 L168 30 L160 38 L168 48 L160 60 L168 72 L160 80" fill="none" stroke="#2F2F31" stroke-width="2"></path>
    <line x1="170" y1="80" x2="320" y2="80" stroke="#2F2F31" stroke-width="1.4" stroke-dasharray="3 4" opacity="0.5"></line>
  </g>
  <g transform="translate(140 30)">
    <rect x="0" y="0" width="60" height="34" rx="3" fill="#558B68" stroke="#2F2F31" stroke-width="2"></rect>
    <rect x="0" y="34" width="60" height="34" rx="3" fill="#558B68" stroke="#2F2F31" stroke-width="2"></rect>
    <rect x="0" y="68" width="60" height="34" rx="3" fill="#558B68" stroke="#2F2F31" stroke-width="2"></rect>
    <rect x="0" y="102" width="60" height="34" rx="3" fill="#558B68" stroke="#2F2F31" stroke-width="2"></rect>
    <rect x="0" y="136" width="60" height="34" rx="3" fill="#558B68" stroke="#2F2F31" stroke-width="2"></rect>
  </g>
  <g stroke="#2F2F31" stroke-width="1.4" fill="none" stroke-linecap="round" opacity="0.6">
    <path d="M250 70 Q256 64 254 56"></path>
    <path d="M280 90 L286 84"></path>
    <path d="M270 220 Q278 216 280 208"></path>
    <path d="M50 60 Q44 52 52 48"></path>
  </g>

</svg>