<svg xmlns="http://www.w3.org/2000/svg" viewBox="0 0 360 300">

  <g transform="translate(180 150) rotate(20)">
    <rect x="-50" y="-90" width="100" height="10" rx="3" fill="#FAF0E4" stroke="#2F2F31" stroke-width="2"></rect>
    <rect x="-50" y="80" width="100" height="10" rx="3" fill="#FAF0E4" stroke="#2F2F31" stroke-width="2"></rect>
    <path d="M-44 -80 L44 -80 L4 0 L44 80 L-44 80 L-4 0 Z" fill="#FCFCFE" stroke="#2F2F31" stroke-width="2.4" stroke-linejoin="round"></path>
    <path d="M-40 -76 L40 -76 L4 -4 L-4 -4 Z" fill="#558B68" opacity="0.6"></path>
    <path d="M-3 -2 L-2 14 L2 14 L3 -2" fill="#558B68"></path>
    <circle cx="0" cy="20" r="1.6" fill="#558B68"></circle>
    <path d="M-26 70 Q0 60 26 70 L26 80 L-26 80 Z" fill="#558B68" stroke="#2F2F31" stroke-width="1.4" stroke-linejoin="round" opacity="0.95"></path>
  </g>
  <g stroke="#2F2F31" stroke-width="1.4" fill="none" stroke-linecap="round" opacity="0.55">
    <path d="M70 80 Q66 70 74 66"></path>
    <path d="M86 60 L92 56"></path>
    <path d="M280 220 Q286 216 290 208"></path>
  </g>

</svg>