<svg xmlns="http://www.w3.org/2000/svg" viewBox="0 0 360 300">

  <g transform="translate(50 110)">
    <line x1="-10" y1="40" x2="10" y2="40" stroke="#2F2F31" stroke-width="2.4" stroke-linecap="round"></line>
    <path d="M10 0 L30 40 L10 80 Z" fill="#FAF0E4" stroke="#2F2F31" stroke-width="2" stroke-linejoin="round"></path>
    <g fill="#FCFCFE" stroke="#2F2F31" stroke-width="2" stroke-linejoin="round">
      <path d="M30 0 L50 40 L30 80 L50 40 Z"></path>
      <path d="M50 0 L70 40 L50 80 L70 40 Z"></path>
      <path d="M70 0 L90 40 L70 80 L90 40 Z"></path>
      <path d="M90 0 L110 40 L90 80 L110 40 Z"></path>
      <path d="M110 0 L130 40 L110 80 L130 40 Z"></path>
      <path d="M130 0 L150 40 L130 80 L150 40 Z"></path>
      <path d="M150 0 L170 40 L150 80 L170 40 Z"></path>
      <path d="M170 0 L190 40 L170 80 L190 40 Z"></path>
      <path d="M190 0 L210 40 L190 80 L210 40 Z"></path>
    </g>
    <path d="M210 0 L230 40 L210 80 Z" fill="#558B68" stroke="#2F2F31" stroke-width="2" stroke-linejoin="round"></path>
    <line x1="230" y1="40" x2="250" y2="40" stroke="#2F2F31" stroke-width="2.4" stroke-linecap="round"></line>
    <g stroke="#2F2F31" stroke-width="1.8" fill="none" stroke-linecap="round" stroke-linejoin="round">
      <path d="M-20 30 L-10 40 L-20 50"></path>
      <path d="M260 30 L250 40 L260 50"></path>
    </g>
  </g>
  <g stroke="#2F2F31" stroke-width="1.4" fill="none" stroke-linecap="round" opacity="0.55">
    <path d="M70 70 L76 64"></path>
    <path d="M280 80 Q288 74 286 66"></path>
    <path d="M170 230 Q176 224 174 216"></path>
  </g>

</svg>