<svg xmlns="http://www.w3.org/2000/svg" viewBox="0 0 360 300">

  <g transform="translate(80 100)">
    <path d="M0 30 L0 100 Q0 110 10 110 L100 110 Q110 110 110 100 L110 30 Q110 24 104 24 L106 14 Q108 8 100 8 L20 8 Q12 8 14 14 L16 24 Q10 24 10 30 Z" fill="#FAF0E4" stroke="#2F2F31" stroke-width="2" stroke-linejoin="round"></path>
    <path d="M14 24 L106 24" stroke="#2F2F31" stroke-width="1.4"></path>
    <path d="M0 50 Q-30 50 -40 30 L-50 36 Q-44 60 -10 70" fill="none" stroke="#2F2F31" stroke-width="2" stroke-linecap="round" stroke-linejoin="round"></path>
    <path d="M-50 36 L-58 24 L-44 22 Z" fill="#558B68" stroke="#2F2F31" stroke-width="1.6" stroke-linejoin="round"></path>
    <path d="M110 60 Q140 60 140 80" fill="none" stroke="#2F2F31" stroke-width="2" stroke-linecap="round"></path>
    <g stroke="#2F2F31" stroke-width="1.4" fill="none" stroke-linecap="round" opacity="0.5">
      <path d="M30 60 L30 90"></path>
      <path d="M50 60 L50 90"></path>
      <path d="M70 60 L70 90"></path>
      <path d="M90 60 L90 90"></path>
    </g>
  </g>
  <g transform="translate(0 220)">
    <line x1="0" y1="20" x2="360" y2="20" stroke="#2F2F31" stroke-width="2"></line>
    <g stroke="#2F2F31" stroke-width="1.6" fill="none" stroke-linecap="round" stroke-linejoin="round">
      <path d="M40 20 L46 30 L52 22 L60 32"></path>
      <path d="M120 20 L126 30 L132 22"></path>
      <path d="M200 20 L208 32 L216 22"></path>
      <path d="M280 20 L286 30 L294 22 L302 32"></path>
    </g>
  </g>

</svg>