<svg xmlns="http://www.w3.org/2000/svg" viewBox="0 0 360 300">

  <g transform="translate(110 40) rotate(-3)">
    <rect x="3" y="6" width="160" height="220" rx="6" fill="#2F2F31" opacity="0.12"></rect>
    <rect x="0" y="0" width="160" height="220" rx="6" fill="#FAF0E4" stroke="#2F2F31" stroke-width="2" stroke-linejoin="round"></rect>
    <rect x="50" y="-10" width="60" height="20" rx="4" fill="#FCFCFE" stroke="#2F2F31" stroke-width="2"></rect>
    <rect x="62" y="-14" width="36" height="8" rx="3" fill="#558B68" stroke="#2F2F31" stroke-width="1.4"></rect>
    <rect x="14" y="20" width="132" height="186" rx="4" fill="#FCFCFE" stroke="#2F2F31" stroke-width="1.6"></rect>
    <g>
      <rect x="22" y="32" width="14" height="14" rx="2" fill="#FCFCFE" stroke="#2F2F31" stroke-width="1.6"></rect>
      <path d="M24 38 L29 44 L36 32" fill="none" stroke="#558B68" stroke-width="2.2" stroke-linecap="round" stroke-linejoin="round"></path>
      <line x1="44" y1="36" x2="124" y2="36" stroke="#2F2F31" stroke-width="1.4" stroke-linecap="round"></line>
      <line x1="44" y1="44" x2="100" y2="44" stroke="#2F2F31" stroke-width="1.4" stroke-linecap="round" opacity="0.7"></line>
    </g>
    <g transform="translate(0 40)">
      <rect x="22" y="32" width="14" height="14" rx="2" fill="#FCFCFE" stroke="#2F2F31" stroke-width="1.6"></rect>
      <path d="M24 38 L29 44 L36 32" fill="none" stroke="#558B68" stroke-width="2.2" stroke-linecap="round" stroke-linejoin="round"></path>
      <line x1="44" y1="36" x2="118" y2="36" stroke="#2F2F31" stroke-width="1.4" stroke-linecap="round"></line>
      <line x1="44" y1="44" x2="92" y2="44" stroke="#2F2F31" stroke-width="1.4" stroke-linecap="round" opacity="0.7"></line>
    </g>
    <g transform="translate(0 80)">
      <rect x="22" y="32" width="14" height="14" rx="2" fill="#FCFCFE" stroke="#2F2F31" stroke-width="1.6"></rect>
      <line x1="44" y1="36" x2="120" y2="36" stroke="#2F2F31" stroke-width="1.4" stroke-linecap="round"></line>
      <line x1="44" y1="44" x2="96" y2="44" stroke="#2F2F31" stroke-width="1.4" stroke-linecap="round" opacity="0.7"></line>
    </g>
    <g transform="translate(0 120)">
      <rect x="22" y="32" width="14" height="14" rx="2" fill="#FCFCFE" stroke="#2F2F31" stroke-width="1.6"></rect>
      <path d="M24 38 L29 44 L36 32" fill="none" stroke="#558B68" stroke-width="2.2" stroke-linecap="round" stroke-linejoin="round"></path>
      <line x1="44" y1="36" x2="114" y2="36" stroke="#2F2F31" stroke-width="1.4" stroke-linecap="round"></line>
      <line x1="44" y1="44" x2="84" y2="44" stroke="#2F2F31" stroke-width="1.4" stroke-linecap="round" opacity="0.7"></line>
    </g>
  </g>
  <g transform="translate(280 80) rotate(20)">
    <rect x="0" y="0" width="50" height="6" rx="2" fill="#FAF0E4" stroke="#2F2F31" stroke-width="1.4"></rect>
    <path d="M50 0 L60 3 L50 6 Z" fill="#558B68" stroke="#2F2F31" stroke-width="1.4" stroke-linejoin="round"></path>
  </g>
  <g stroke="#2F2F31" stroke-width="1.4" fill="none" stroke-linecap="round" opacity="0.55">
    <path d="M50 60 Q44 52 52 48"></path>
    <path d="M310 220 L316 214"></path>
  </g>

</svg>